# xmcd
#
# Track frame offsets: 
#        150
#        13372
#        27147
#        38077
#        48470
#        67390
#        84755
#        94560
#        107755
#        120607
#        139065
#        149742
#        166170
#        179117
#        193565
#        207942
#        229760
#        244675
#        258455
#
# Disc length: 3604 seconds
#
# Revision: 3
# Processed by: cddbd v1.5.2PL0 Copyright (c) Steve Scherf et al.
# Submitted via: ExactAudioCopy v1.0b1
#
DISCID=120e1213
DTITLE=Various Artist - Country Show Down - The Very Best Of Country And West
DTITLE=ern [CD 2)
DYEAR=1999
DGENRE=Country
TTITLE0=Kenny Rogers - Ruby, Don't Take Your Love To Town
TTITLE1=J. Cash, W. Jennings, W. Nelson and K. Kristofferson - Highwayma
TTITLE1=n
TTITLE2=Willie Nelson - Hello Walls
TTITLE3=Chet Atkins - Mr. Sandman
TTITLE4=John Denver - Rocky Mountain High
TTITLE5=Sylvia's Mother - Dr. Hook
TTITLE6=Loretta Lynn - Trouble In Paradise
TTITLE7=Merle Haggard - Okie From Muskogee
TTITLE8=Patsy Cline - I Fall To Pieces
TTITLE9=Randy Travis - Hard Rock Bottom Of Your Heart
TTITLE10=Jim Reeves - He'll Have To Go
TTITLE11=Debbie Boone - You Light Up My Life
TTITLE12=Eddy Arnold - I Really Don't Want To Know
TTITLE13=Tanya Tucker - What's Your Mama's Name
TTITLE14=Hal Ketchum - I Saw The Light
TTITLE15=Tim McGraw - Everywhere
TTITLE16=Bellamy Brothers - Let Your Love Flow
TTITLE17=Waylon Jennings - Good Hearted Woman
TTITLE18=Wanda Jackson - Stand By Your Man
EXTD=
EXTT0=
EXTT1=
EXTT2=
EXTT3=
EXTT4=
EXTT5=
EXTT6=
EXTT7=
EXTT8=
EXTT9=
EXTT10=
EXTT11=
EXTT12=
EXTT13=
EXTT14=
EXTT15=
EXTT16=
EXTT17=
EXTT18=
PLAYORDER=
